<?xml version="1.0" encoding="utf-8"?>
<!-- Generator: Adobe Illustrator 25.2.1, SVG Export Plug-In . SVG Version: 6.00 Build 0)  -->
<svg version="1.1" id="Layer_1" xmlns="http://www.w3.org/2000/svg" xmlns:xlink="http://www.w3.org/1999/xlink" x="0px" y="0px"
	 viewBox="0 0 590.2 590.2" style="enable-background:new 0 0 590.2 590.2;" xml:space="preserve">
<style type="text/css">
	.st0{fill:#007BFB;}
	.st1{fill:#FFFFFF;}
</style>
<g>
	<g id="Layer_1_1_">
		<rect class="st0" width="590.2" height="590.2"/>
		<path class="st1" d="M342.1,245.1l-34.5,34.5c-4.5,4.5-11.9,4.5-16.4,0l-74.9-75c-4.5-4.5-4.5-11.8,0-16.4c0,0,0,0,0,0l34.5-34.5
			c4.5-4.5,11.9-4.5,16.4,0c0,0,0,0,0,0l75,75C346.7,233.2,346.7,240.6,342.1,245.1z M355.1,258.1L217.9,395.3
			c-4.5,4.5-4.5,11.9,0,16.4c0,0,0,0,0,0l33.8,33.8c4.5,4.5,11.9,4.5,16.4,0l137.2-137.2c4.5-4.5,4.5-11.9,0-16.4l-33.8-33.8
			C367,253.6,359.6,253.5,355.1,258.1C355.1,258.1,355.1,258.1,355.1,258.1L355.1,258.1z"/>
	</g>
</g>
</svg>
