<?xml version="1.0" encoding="utf-8"?>
<!-- Generator: Adobe Illustrator 25.2.1, SVG Export Plug-In . SVG Version: 6.00 Build 0)  -->
<svg version="1.1" id="Layer_1" xmlns="http://www.w3.org/2000/svg" xmlns:xlink="http://www.w3.org/1999/xlink" x="0px" y="0px"
	 viewBox="0 0 590.2 590.2" style="enable-background:new 0 0 590.2 590.2;" xml:space="preserve">
<style type="text/css">
	.st0{fill:#007BFB;}
</style>
<g>
	<g id="Layer_1_1_">
		<path class="st0" d="M342.4,244.6L308,279c-4.5,4.5-11.9,4.5-16.4,0l-74.9-75c-4.5-4.5-4.5-11.9,0-16.4l34.5-34.5
			c4.5-4.5,11.9-4.5,16.4,0l75,75C347,232.7,347,240.1,342.4,244.6C342.4,244.6,342.4,244.6,342.4,244.6z M355.4,257.6L218.2,394.8
			c-4.5,4.5-4.5,11.9,0,16.4c0,0,0,0,0,0L252,445c4.5,4.5,11.9,4.5,16.4,0l137.2-137.2c4.5-4.5,4.5-11.9,0-16.4c0,0,0,0,0,0
			l-33.8-33.8C367.3,253,360,253,355.4,257.6C355.4,257.6,355.4,257.6,355.4,257.6L355.4,257.6z"/>
	</g>
</g>
</svg>
