<svg id="Layer_1" data-name="Layer 1" xmlns="http://www.w3.org/2000/svg" viewBox="0 0 965.09 182.85"><defs><style>.cls-1{fill:#fff;}</style></defs><path class="cls-1" d="M863.83,124.42v-12.1c0-41.69-26.19-63.25-60-63.25h-6.62c-36.39,0-59.61,24.81-60.81,59.83-.17,5.13-.17,7.26,0,14.27.86,34.85,25.29,58.31,57.92,59.17,6,.17,5.21.15,10.85,0,28.41-.8,49.93-17.2,56.27-38.64l-27.49-4.8c-6.71,13.43-19.53,18.58-29.78,19.09a50.38,50.38,0,0,1-6.95,0c-16.06-.66-30.44-13.24-30.44-31.52v-2Zm-67.15-51a57.29,57.29,0,0,1,7.64,0c13.5.68,27.7,9.44,29.07,26.87H766.93C768.47,84.73,781,74.26,796.68,73.41Z"/><path class="cls-1" d="M646.24,104.79c-.69-31.27-25.91-55.21-59.24-55.21H574.92c-33.32,0-58.54,23.94-59.23,55.38-.17,8.71-.17,13.79,0,22.51.69,31.43,25.91,55.38,59.23,55.38H587c33.33,0,58.55-23.95,59.24-55.38C646.41,118.75,646.41,113.5,646.24,104.79ZM615.8,125.87c-.37,18.25-13.65,30.65-31.51,31.55a41,41,0,0,1-6.65,0c-18-.9-31.15-13.3-31.51-31.55-.18-7.59-.18-11.9,0-19.49C546.49,88.3,559.59,75.9,577.64,75a41,41,0,0,1,6.65,0c17.86.9,31.14,13.3,31.51,31.56C616,114.15,616,118.28,615.8,125.87Z"/><path class="cls-1" d="M285.73,179.74V51.81h29.34V68.46a41.78,41.78,0,0,1,16.52-14.14A52.09,52.09,0,0,1,355,49.16q15.31,0,25.5,6.48A38.12,38.12,0,0,1,395.16,71.9a43.16,43.16,0,0,1,18.9-17.05,59,59,0,0,1,25.51-5.69q20.35,0,33,11.77t12.69,34v84.85H454.9v-79.3q0-11.35-6.34-18.1t-19.3-6.74A29.51,29.51,0,0,0,409.17,83q-8.46,7.4-8.46,19.56v77.18H370.32v-79q0-11.64-6.35-18.37T344.68,75.6A29.51,29.51,0,0,0,324.59,83q-8.46,7.4-8.46,19.56v77.18Z"/><path class="cls-1" d="M675.5,179.74V0h31.81V179.74Z"/><path class="cls-1" d="M965.09,179.74H943.94q-25.91,0-36.48-11t-10.57-36.34V78.77H876.27v-27h20.62V19.3h30.4V51.81h37v27h-37V131.9q0,11.63,4.89,16.25t14.67,4.63h18.24Z"/><path class="cls-1" d="M0,142.72,29.53,139q2.53,9.78,10.13,14.54t20.53,4.76q13.22,0,19.69-3.7t6.47-10.31q0-6.6-4.93-10t-17.86-5.55l-18.28-3.18q-19.41-3.17-30.23-11.63T4.22,88.8q0-18.49,15.61-29.07T59.91,49.15q24.18,0,39.09,10.44t17.72,26.57L88,92a23.75,23.75,0,0,0-8.72-13.48q-6.75-5.28-20-5.28-11.81,0-18.28,3.83T34.59,87.22q0,6.87,5.35,9.64t16,4.63l17.44,3.17q21.38,3.7,32.48,12.56T117,142.46q0,17.72-14.62,28.81t-43,11.1q-24.75,0-40.36-9.91T0,142.72Z"/><path class="cls-1" d="M202.58,50H191.67c-26.2,0-46,15.93-50.6,39.65l27.84,4.46c3.8-11.29,12.55-19,23.62-19.51a44,44,0,0,1,6.29,0c16.45.6,23.88,8.48,23.88,28-31.17,0-52.48-1.48-68.14,8.85-12.8,8.44-18.28,17.8-18.28,32.59,0,21.4,16.65,38.36,43.53,38.36h3.7c19,0,34.32-7.39,40.56-16.31v13.69h28.05V103.16C252.12,73.59,236.29,50,202.58,50ZM185.45,157.59c-11.92-.34-18.83-7.24-18.83-16,0-7.23,3.26-10.77,7.57-13.28,4.51-2.63,10.38-3.54,19.5-3.86,8.76-.31,15.89-.7,29.48-.7,0,21.69-13.65,32.59-30.6,33.75A62.34,62.34,0,0,1,185.45,157.59Z"/></svg>